<svg viewBox="0 0 512 512" xmlns="http://www.w3.org/2000/svg"><path d="M503.91 215.672a52.919 52.919 0 0 0-15.68-37.66C389.096 62.322 253.12 39.41 250.96 39.06a.078.078 0 0 0-.03-.01v.01a53.097 53.097 0 0 0-61.932 73.903l-.788 1.217a92.448 92.448 0 0 1-17.99 20.62c-15.51 13.21-43.82 37.14-69.29 58.63-1.48-.12-3.01-.18-4.55-.18-18.83 0-34.1 8.96-34.1 20 0 .023.004.046.004.069v8.25a12.158 12.158 0 0 0 .655 3.907A50899.223 50899.223 0 0 1 48.07 238.01c-.16.14-.33.29-.49.44a125.81 125.81 0 0 0-31.1 135.62l25.19 67.08c.05.12.1.24.15.37 2.1 5.05 7.55 20.57 7.51 31.37v8.47a17.756 17.756 0 0 0 16.96 17.75c.18.01.35.01.53.01a17.509 17.509 0 0 0 17.49-17.49v-22.267a12.348 12.348 0 0 0 .54-1.321l14.887-44.318a72.833 72.833 0 0 1 47.077-46.25l61.378-19.418a27.884 27.884 0 0 1 5.978 8.464c4.43 9.25 5.21 20.35 5.34 24.84v62.13a17.767 17.767 0 0 0 16.97 17.76c.17.01.35.01.53.01a17.515 17.515 0 0 0 17.49-17.49v-52.34a17.39 17.39 0 0 0 11.06 3.95 17.142 17.142 0 0 0 2.26-.14 17.648 17.648 0 0 0 15.23-17.57v-40.78a61.643 61.643 0 0 1 2.03-13.15l147.77-46.744 27.043-9.012-.023-.008a53.094 53.094 0 0 0 44.04-52.304Zm-16.592-38.52c-.332-.316-.662-.635-1.002-.94.34.306.67.623 1.002.94ZM212.72 75.47a63.412 63.412 0 0 1 6.78-9.99 36.742 36.742 0 0 1 9.81-6.87 43.402 43.402 0 0 1 5.49-2.21c.94-.3 5.63-1.4 6.1-1.45a6.896 6.896 0 1 1 1.08 13.75c-.13 0-3.09.31-3.74.44a30.59 30.59 0 0 0-4 1.06 25.13 25.13 0 0 0-7.12 3.76 20.343 20.343 0 0 0-5.21 5.95 25.657 25.657 0 0 0-2.82 7.91l-.02.1a4.508 4.508 0 0 1-8.93-1.12 35.309 35.309 0 0 1 2.58-11.33Zm-1.32 27.2a6.91 6.91 0 1 1-5.42 8.13 6.913 6.913 0 0 1 5.42-8.13ZM76.82 206.87a35.892 35.892 0 0 1 13.16-4.19 47.836 47.836 0 0 1 16.32.61 33.145 33.145 0 0 1 9.64 3.58c3.42 2.01 5.54 4.45 5.54 6.38s-2.12 4.38-5.54 6.38c-5.01 2.94-12.13 4.62-19.56 4.62a45.39 45.39 0 0 1-12.82-1.78 29.762 29.762 0 0 1-6.74-2.84 17.345 17.345 0 0 1-3.65-2.78 5.628 5.628 0 0 1-1.89-3.6c0-1.93 2.13-4.37 5.54-6.38Zm195.23 170.8a6.636 6.636 0 0 1-5.63 6.66 6.289 6.289 0 0 1-.86.05 6.48 6.48 0 0 1-6.48-6.49v-45.93s-.957-7.06-4.838-9.527a5.233 5.233 0 0 0-2.865-.843h-.007c-3.001 0-4.929 3.484-6.125 7.127a44.663 44.663 0 0 0-1.749 8.177l.004-.001V443.77a6.495 6.495 0 0 1-6.49 6.49h-.2a6.68 6.68 0 0 1-6.3-6.77v-62.28c-.31-12-4.03-49.88-38.33-49.88a58.822 58.822 0 0 0-13.17 1.62l-46.3 15.09a78.243 78.243 0 0 0-49.56 48.5l-4.43 12.64a112.33 112.33 0 0 0-5.41 33.95v38.5a6.483 6.483 0 0 1-6.49 6.49h-.2a6.677 6.677 0 0 1-6.29-6.76v-8.43c.05-15.47-8.36-35.65-8.36-35.65L26.78 370.2a115.03 115.03 0 0 1 28.38-123.78s5.655-4.77 14.633-12.337c6.25 4.562 15.835 7.485 26.59 7.485 18.832 0 34.098-8.953 34.098-19.999v-8.318q0 .524-.045 1.024.043-.51.044-1.025c0-7.13-6.36-13.38-15.93-16.92 23.61-19.94 48.52-41 62.8-53.15a104.14 104.14 0 0 0 18.038-19.928 53.31 53.31 0 0 0 18.422 14.808q7.2 2.085 14.45 4.6c87.64 30.28 178.29 103.21 179.7 104.35-.046-.062-.086-.129-.132-.191a53.388 53.388 0 0 0 8.15 8.902L404.3 259.46l-38.51 12.56-67.92 22.16-.03.01-3.45 1.12c-22.32 8.71-22.34 41.58-22.34 41.58Zm134.027-133.424q.151.237.305.473-.154-.235-.305-.472Zm44.746 11.513a40.088 40.088 0 1 1 40.087-40.087 40.047 40.047 0 0 1-40.087 40.087Z" fill="#ffffff" class="fill-000000"></path><path d="M301.192 244.048v-8.318c0-11.045-15.267-20-34.1-20s-34.098 8.955-34.098 20c0 .044.005.088.005.132 0-.045-.005-.087-.005-.132v8.318c0 11.045 15.266 20 34.099 20s34.099-8.954 34.099-20Zm-53.658-14.696c5.007-2.937 12.136-4.621 19.559-4.621s14.551 1.684 19.558 4.62c3.418 2.005 5.54 4.45 5.54 6.38s-2.122 4.373-5.54 6.377c-5.007 2.937-12.136 4.621-19.558 4.621s-14.552-1.684-19.559-4.62c-3.417-2.005-5.54-4.449-5.54-6.379s2.123-4.374 5.54-6.378ZM121.233 265.286c-18.832 0-34.099 8.953-34.099 19.999v8.318c0 11.045 15.267 19.999 34.099 19.999s34.099-8.954 34.099-20v-8.317c0-11.046-15.267-20-34.099-20Zm-19.558 13.62c5.007-2.936 12.135-4.62 19.558-4.62s14.551 1.684 19.558 4.62c3.418 2.005 5.54 4.449 5.54 6.378s-2.122 4.374-5.54 6.379c-5.007 2.936-12.135 4.62-19.558 4.62s-14.551-1.684-19.558-4.62c-3.418-2.005-5.541-4.449-5.541-6.379s2.123-4.373 5.54-6.378ZM238.417 287.387h-25.414a4.926 4.926 0 0 0 0 9.852h25.414a4.926 4.926 0 0 0 0-9.852ZM225.643 182.32c0-8.744-11.219-15.091-26.674-15.091s-26.675 6.347-26.675 15.091 11.218 15.091 26.675 15.091 26.674-6.346 26.674-15.091Zm-26.674 5.238c-11.009 0-16.63-4.026-16.823-5.228.192-1.223 5.813-5.248 16.823-5.248 10.982 0 16.6 4.004 16.82 5.238-.22 1.234-5.84 5.238-16.82 5.238ZM82.855 332.384a42.278 42.278 0 0 0-16.343 7.054 42.288 42.288 0 0 0-12.447 12.724c-4.485 7.626-2.548 12.557-.994 14.819 2.183 3.177 5.898 4.735 10.463 4.735 5.79 0 12.944-2.508 20.067-7.402a42.286 42.286 0 0 0 12.447-12.724c4.484-7.625 2.548-12.557.994-14.818s-5.465-5.84-14.188-4.388Zm-4.833 23.81c-9.076 6.235-15.985 6.1-16.826 5.215-.532-1.117 1.821-7.617 10.894-13.85 6.473-4.447 11.847-5.653 14.704-5.653a3.46 3.46 0 0 1 2.126.446c.518 1.14-1.846 7.623-10.898 13.841ZM59.447 307.104c0-2.672-4.619-8.478-10.316-8.478s-10.315 5.806-10.315 8.478 4.618 4.837 10.315 4.837 10.316-2.166 10.316-4.837ZM337.45 260.338c5.697 0 10.316-2.166 10.316-4.837s-4.619-8.477-10.316-8.477-10.316 5.805-10.316 8.477 4.619 4.837 10.316 4.837ZM173.604 236.574c-5.697 0-10.316 5.806-10.316 8.478s4.619 4.837 10.316 4.837 10.315-2.166 10.315-4.837-4.618-8.478-10.315-8.478Z" fill="#ffffff" class="fill-000000"></path></svg>